inDegrees=no
num_controls=7
num_derivatives=13
num_iterations=150
num_multipliers=7
num_parameters=0
num_slacks=7
num_states=26
objective=0.445690
objective_accelerations=0.056905
objective_balance=0.003577
objective_effort=0.022868
objective_height=0.356772
objective_ligament=0.005568
solver_duration=2511.454037
status=Solve_Succeeded
success=true
DataType=double
version=3
OpenSimVersion=4.5
endheader
time	/jointset/ground_pelvis/pelvis_tilt/value	/jointset/ground_pelvis/pelvis_tx/value	/jointset/ground_pelvis/pelvis_ty/value	/jointset/hip_l/hip_flexion_l/value	/jointset/hip_l/hip_adduction_l/value	/jointset/hip_l/hip_rotation_l/value	/jointset/back/lumbar_extension/value	/jointset/patellofemoral_l/patellar_flexion_l/value	/jointset/knee_l/knee_flexion_l/value	/jointset/knee_l/knee_adduction_l/value	/jointset/knee_l/knee_rotation_l/value	/jointset/ankle_l/ankle_angle_l/value	/jointset/subtalar_l/subtalar_angle_l/value	/jointset/ground_pelvis/pelvis_tilt/speed	/jointset/ground_pelvis/pelvis_tx/speed	/jointset/ground_pelvis/pelvis_ty/speed	/jointset/hip_l/hip_flexion_l/speed	/jointset/hip_l/hip_adduction_l/speed	/jointset/hip_l/hip_rotation_l/speed	/jointset/back/lumbar_extension/speed	/jointset/patellofemoral_l/patellar_flexion_l/speed	/jointset/knee_l/knee_flexion_l/speed	/jointset/knee_l/knee_adduction_l/speed	/jointset/knee_l/knee_rotation_l/speed	/jointset/ankle_l/ankle_angle_l/speed	/jointset/subtalar_l/subtalar_angle_l/speed	/forceset/tau_hip_flexion_l	/forceset/tau_hip_adduction_l	/forceset/tau_hip_rotation_l	/forceset/tau_knee_flexion_l	/forceset/tau_ankle_angle_l	/forceset/tau_subtalar_angle_l	/forceset/tau_lumbar_extension	lambda_cid13_p0	lambda_cid13_p1	lambda_cid13_p2	lambda_cid13_p3	lambda_cid13_p4	lambda_cid13_p5	lambda_cid14_p0	/jointset/ground_pelvis/pelvis_tilt/accel	/jointset/ground_pelvis/pelvis_tx/accel	/jointset/ground_pelvis/pelvis_ty/accel	/jointset/hip_l/hip_flexion_l/accel	/jointset/hip_l/hip_adduction_l/accel	/jointset/hip_l/hip_rotation_l/accel	/jointset/back/lumbar_extension/accel	/jointset/patellofemoral_l/patellar_flexion_l/accel	/jointset/knee_l/knee_flexion_l/accel	/jointset/knee_l/knee_adduction_l/accel	/jointset/knee_l/knee_rotation_l/accel	/jointset/ankle_l/ankle_angle_l/accel	/jointset/subtalar_l/subtalar_angle_l/accel	gamma_cid13_p0	gamma_cid13_p1	gamma_cid13_p2	gamma_cid13_p3	gamma_cid13_p4	gamma_cid13_p5	gamma_cid14_p0
1	-0.5511225877056891	-0.08212851962929348	0.5765831948580057	1.830417854912207	-0.4684296022444134	0.01270454089379485	-0.2617850968951678	1.375069533715733	1.375069533716053	-0.08968530686683733	-0.1745256707676806	0.215822048871858	-0.01388489272836215	-0.01636534802525932	0.0111129520037228	0.003012420129760297	-0.003880975528974052	-0.002543631441110542	0.003105061907719601	-2.947453683742104e-05	0.001149381569455385	0.001149381569455391	-0.00535721005538527	-0.0001798565385263592	0.02121774147919372	0.009049141459718265	-0.3346820159236664	0.01230495469250325	-0.0001854253911178322	-0.3001099316809748	0.03607680619356301	0.03406018423893069	0.2854111706111439	-28.25307810410433	-10.80850636189046	2.487320536017326	7.517585234041587	-642.0282755599305	-49.96876296165625	-1.633137165061043	1.554645641418228	0.249000591621888	1.950802838116099	-6.80586853621216	-0.07755939389684996	-2.346595473636138	-0.02113280649722562	-5.263432290616314	-5.263432290616302	-0.5780788007338465	-0.02925841492509566	-0.6873157844625436	-0.4621995468635031	4.970295497744445e-09	1.893013230180484e-08	-1.353328221426642e-08	3.019979061201678e-09	-1.805293337026301e-09	2.38139395309558e-08	2.690485186045746e-09
1.01	-0.5512094709155626	-0.08200500174664205	0.5767107121956884	1.83004008803723	-0.4684578686130373	0.01261700050026436	-0.2617854184153761	1.374817965951853	1.374817965952149	-0.08976488881996082	-0.1745276526579232	0.21600001318038	-0.01381606824783426	-0.001012253136585975	0.01359238675031583	0.02248726883026062	-0.07166267434024493	-0.003104015159833184	-0.02060828442510475	-3.407687283106871e-05	-0.05146291895738744	-0.05146291895738763	-0.01055814737306784	-0.0002112213810116442	0.01436735393453768	0.004718063454181017	-0.334579148192415	0.01241179525323569	-0.0002036050602740482	-0.2999554126709236	0.03590443324199324	0.03408120453508277	0.2853341594361455	-28.29565006058611	-10.81445656156523	2.49315237899915	7.463854152816791	-641.8873118651089	-49.9834636554713	-1.638824744662529	1.525496349989251	0.2476801318598931	1.945256594931702	-6.762863223148166	-0.04443501639555069	-2.382981639028612	0.00998894767002376	-5.26012466061895	-5.260124660618971	-0.4909494888852035	0.01072792970274987	-0.6850645479972007	-0.4182207096464484	-3.73495369346375e-09	9.764490513532489e-09	2.993256067181124e-08	4.396797442113053e-09	-1.241593146583291e-08	7.374842365656384e-08	-9.699471256322517e-09
1.02	-0.5511428521890708	-0.08185663647338828	0.5770328641621587	1.828984795640227	-0.4684915702499561	0.01229247115821987	-0.2617857633799794	1.374040276037324	1.374040276037597	-0.08989644980458267	-0.1745297875068494	0.2161092407517492	-0.01379048630381131	0.01433503924798264	0.01608243012418922	0.04193934588734718	-0.13938607993406	-0.003630685099977678	-0.04429272779485034	-3.416341600555118e-05	-0.1040750485602582	-0.1040750485602583	-0.01575301635474085	-0.0002104482789771345	0.007470394048678604	0.0004006341587390998	-0.3344762804611712	0.01251863581396386	-0.0002217847294346457	-0.2998008936608724	0.03573206029042314	0.03410222483122931	0.2852571482611395	-28.34420804137927	-10.81924829951908	2.498673490557707	7.433183950105614	-641.8295153183503	-49.97593416312238	-1.65580129310137	1.553485140597282	0.2511223170779526	1.946248509433349	-6.794209892720998	-0.07081663818117161	-2.340814881020338	-0.02022964793338079	-5.263398105821914	-5.263398105821838	-0.5768651335319158	-0.02283082602104182	-0.6966302527031559	-0.4594698048443784	-1.151677455344318e-08	2.696612592109559e-09	7.416932774324813e-08	6.093113218260551e-09	-2.242397096937811e-08	1.224261787210011e-07	-2.14043962973866e-08
1.03	-0.5509227429949747	-0.08168328333862251	0.5775493460390937	1.827252708689045	-0.4685302296922647	0.01173141984816527	-0.2617860858499029	1.372736568725442	1.372736568725405	-0.09007987182337683	-0.1745315880745494	0.2161492252315367	-0.01380785258036899	0.02968976093105016	0.01859330332097121	0.06134556344626312	-0.2070061101023395	-0.004080608007478373	-0.06789451675877953	-2.874785434748707e-05	-0.1566563684705594	-0.156656368470559	-0.02092351723016725	-0.0001260563287730577	0.000514866490020857	-0.003854559452958195	-0.3340865136210014	0.01267045715810748	-0.0002725608440973177	-0.299499391224699	0.03562297057278178	0.03420719564182351	0.2849868517114535	-28.35179550528659	-10.87670235315689	2.522903655159948	7.325145328354451	-641.4726735559116	-50.05011462973737	-1.68427560816137	1.526906471098465	0.2518373636067305	1.93608192533113	-6.742123609247447	-0.02900177293466566	-2.366428843089787	0.01116456541598476	-5.253985440489296	-5.253985440489272	-0.4859735058811276	0.02764530824768257	-0.6967586130902498	-0.4056579301357553	-1.928917267534885e-08	-4.349859575569999e-09	1.18413961388005e-07	7.792689171910461e-09	-3.242586150735942e-08	1.71091110019508e-07	-3.310233122211083e-08
